<svg width="16" height="16" viewBox="0 0 16 16" fill="none" xmlns="http://www.w3.org/2000/svg">
<g clip-path="url(#clip0_1576_83733)">
<path fill-rule="evenodd" clip-rule="evenodd" d="M4.86193 10.8623C5.12228 10.6019 5.54439 10.6019 5.80474 10.8623L8 13.0575L10.1953 10.8623C10.4556 10.6019 10.8777 10.6019 11.1381 10.8623C11.3984 11.1226 11.3984 11.5447 11.1381 11.8051L8.47141 14.4717C8.21106 14.7321 7.78895 14.7321 7.5286 14.4717L4.86193 11.8051C4.60158 11.5447 4.60158 11.1226 4.86193 10.8623Z" fill="#2C323A"/>
<path fill-rule="evenodd" clip-rule="evenodd" d="M7.99999 7.33301C8.36818 7.33301 8.66666 7.63148 8.66666 7.99967V13.9997C8.66666 14.3679 8.36818 14.6663 7.99999 14.6663C7.63181 14.6663 7.33333 14.3679 7.33333 13.9997V7.99967C7.33333 7.63148 7.63181 7.33301 7.99999 7.33301Z" fill="#2C323A"/>
<path fill-rule="evenodd" clip-rule="evenodd" d="M5.77839 1.32907C6.68538 1.29645 7.58795 1.47002 8.41815 1.8367C9.24835 2.20338 9.98456 2.75362 10.5713 3.44599C11.045 4.0049 11.4113 4.64467 11.6536 5.33296L11.9995 5.33296C12.8496 5.33241 13.6782 5.60269 14.3643 6.10461C15.0506 6.60664 15.559 7.31427 15.8158 8.12482C16.0726 8.93538 16.0644 9.80668 15.7925 10.6123C15.5206 11.4179 14.999 12.1159 14.3035 12.605C14.0023 12.8168 13.5865 12.7443 13.3747 12.4431C13.1629 12.1419 13.2353 11.7261 13.5365 11.5143C14.0002 11.1882 14.3479 10.7229 14.5292 10.1858C14.7105 9.64877 14.7159 9.06791 14.5447 8.52754C14.3735 7.98717 14.0346 7.51541 13.5771 7.18073C13.1196 6.84605 12.5674 6.66585 12.0005 6.6663H11.16C10.8556 6.6663 10.5899 6.46015 10.5142 6.16533C10.3388 5.48158 10.0105 4.84655 9.55415 4.30804C9.09777 3.76952 8.52517 3.34156 7.87945 3.05637C7.23374 2.77117 6.53174 2.63618 5.82631 2.66154C5.12087 2.68691 4.43038 2.87198 3.80682 3.20282C3.18326 3.53367 2.64288 4.00165 2.22636 4.57156C1.80984 5.14146 1.52803 5.79844 1.40215 6.49301C1.27627 7.18759 1.3096 7.90167 1.49964 8.5815C1.68967 9.26134 2.03145 9.8892 2.49925 10.4178C2.74325 10.6936 2.71753 11.1149 2.4418 11.3589C2.16607 11.6029 1.74474 11.5772 1.50074 11.3014C0.899287 10.6218 0.459855 9.81452 0.215528 8.94045C-0.0287992 8.06638 -0.0716543 7.14827 0.0901889 6.25525C0.252032 5.36222 0.614356 4.51754 1.14988 3.78481C1.68541 3.05207 2.38019 2.45037 3.18191 2.025C3.98363 1.59964 4.8714 1.36169 5.77839 1.32907Z" fill="#2C323A"/>
</g>
<defs>
<clipPath id="clip0_1576_83733">
<rect width="16" height="16" fill="white"/>
</clipPath>
</defs>
</svg>
