<svg width="24" height="24" viewBox="0 0 24 24" fill="none" xmlns="http://www.w3.org/2000/svg">
<path d="M15 11C15.5523 11 16 10.5523 16 10C16 9.44771 15.5523 9 15 9C14.4477 9 14 9.44771 14 10C14 10.5523 14.4477 11 15 11Z" fill="#2C323A"/>
<path d="M10 10C10 10.5523 9.55229 11 9 11C8.44772 11 8 10.5523 8 10C8 9.44771 8.44772 9 9 9C9.55229 9 10 9.44771 10 10Z" fill="#2C323A"/>
<path d="M8.8944 14.053C8.64741 13.559 8.04674 13.3588 7.55276 13.6058C7.05878 13.8528 6.85856 14.4535 7.10555 14.9474C7.60071 15.9378 9.20459 17.5002 12 17.5002C14.7954 17.5002 16.3992 15.9378 16.8944 14.9474C17.1414 14.4535 16.9412 13.8528 16.4472 13.6058C15.9532 13.3588 15.3525 13.559 15.1055 14.053C14.934 14.396 14.0046 15.5002 12 15.5002C9.99536 15.5002 9.0659 14.396 8.8944 14.053Z" fill="#2C323A"/>
<path fill-rule="evenodd" clip-rule="evenodd" d="M23 12C23 18.0751 18.0751 23 12 23C5.92487 23 1 18.0751 1 12C1 5.92487 5.92487 1 12 1C18.0751 1 23 5.92487 23 12ZM21 12C21 16.9706 16.9706 21 12 21C7.02944 21 3 16.9706 3 12C3 7.02944 7.02944 3 12 3C16.9706 3 21 7.02944 21 12Z" fill="#2C323A"/>
</svg>
