<svg width="16" height="16" viewBox="0 0 16 16" fill="none" xmlns="http://www.w3.org/2000/svg">
<path fill-rule="evenodd" clip-rule="evenodd" d="M3.33333 2.66634C2.96514 2.66634 2.66666 2.96482 2.66666 3.33301V12.6663C2.66666 13.0345 2.96514 13.333 3.33333 13.333H12.6667C13.0349 13.333 13.3333 13.0345 13.3333 12.6663V3.33301C13.3333 2.96482 13.0349 2.66634 12.6667 2.66634H3.33333ZM1.33333 3.33301C1.33333 2.22844 2.22876 1.33301 3.33333 1.33301H12.6667C13.7712 1.33301 14.6667 2.22844 14.6667 3.33301V12.6663C14.6667 13.7709 13.7712 14.6663 12.6667 14.6663H3.33333C2.22876 14.6663 1.33333 13.7709 1.33333 12.6663V3.33301Z" fill="#47505E"/>
<path fill-rule="evenodd" clip-rule="evenodd" d="M5.66666 5.33301C5.48257 5.33301 5.33333 5.48225 5.33333 5.66634C5.33333 5.85044 5.48257 5.99967 5.66666 5.99967C5.85076 5.99967 6 5.85044 6 5.66634C6 5.48225 5.85076 5.33301 5.66666 5.33301ZM3.99999 5.66634C3.99999 4.74587 4.74619 3.99967 5.66666 3.99967C6.58714 3.99967 7.33333 4.74587 7.33333 5.66634C7.33333 6.58682 6.58714 7.33301 5.66666 7.33301C4.74619 7.33301 3.99999 6.58682 3.99999 5.66634Z" fill="#47505E"/>
<path fill-rule="evenodd" clip-rule="evenodd" d="M10.1953 6.19494C10.4556 5.93459 10.8777 5.93459 11.1381 6.19494L14.4714 9.52827C14.7317 9.78862 14.7317 10.2107 14.4714 10.4711C14.2111 10.7314 13.7889 10.7314 13.5286 10.4711L10.6667 7.60915L3.80473 14.4711C3.54438 14.7314 3.12227 14.7314 2.86192 14.4711C2.60157 14.2107 2.60157 13.7886 2.86192 13.5283L10.1953 6.19494Z" fill="#47505E"/>
</svg>
