<svg width="24" height="24" viewBox="0 0 24 24" fill="none" xmlns="http://www.w3.org/2000/svg">
<path d="M7.55556 2.62402C4.48778 2.62402 2 5.1118 2 8.17958V17.0685C2 20.1362 4.48778 22.624 7.55556 22.624H16.4444C19.5122 22.624 22 20.1362 22 17.0685V8.17958C22 5.1118 19.5122 2.62402 16.4444 2.62402H7.55556ZM18.6667 4.84625C19.28 4.84625 19.7778 5.34402 19.7778 5.95736C19.7778 6.57069 19.28 7.06847 18.6667 7.06847C18.0533 7.06847 17.5556 6.57069 17.5556 5.95736C17.5556 5.34402 18.0533 4.84625 18.6667 4.84625ZM12 7.06847C15.0678 7.06847 17.5556 9.55625 17.5556 12.624C17.5556 15.6918 15.0678 18.1796 12 18.1796C8.93222 18.1796 6.44444 15.6918 6.44444 12.624C6.44444 9.55625 8.93222 7.06847 12 7.06847ZM12 9.29069C11.1159 9.29069 10.2681 9.64188 9.64298 10.267C9.01786 10.8921 8.66667 11.74 8.66667 12.624C8.66667 13.5081 9.01786 14.3559 9.64298 14.981C10.2681 15.6062 11.1159 15.9574 12 15.9574C12.8841 15.9574 13.7319 15.6062 14.357 14.981C14.9821 14.3559 15.3333 13.5081 15.3333 12.624C15.3333 11.74 14.9821 10.8921 14.357 10.267C13.7319 9.64188 12.8841 9.29069 12 9.29069Z" fill="#78808D"/>
</svg>
