<svg width="24" height="24" viewBox="0 0 24 24" fill="none" xmlns="http://www.w3.org/2000/svg">
<path d="M6.43756 7.05029H2.09351V20.0956H6.43756V7.05029Z" fill="#78808D"/>
<path d="M20.6944 8.24181C19.7819 7.2457 18.575 6.74756 17.0744 6.74756C16.5215 6.74756 16.019 6.81557 15.5669 6.95168C15.115 7.08769 14.7333 7.27853 14.4217 7.52429C14.1103 7.77004 13.8622 7.99818 13.678 8.20871C13.5029 8.40867 13.3317 8.64161 13.1646 8.90511V7.05012H8.8335L8.84677 7.68207C8.85567 8.10344 8.86005 9.4022 8.86005 11.5785C8.86005 13.755 8.85129 16.594 8.83368 20.0956H13.1646V12.8158C13.1646 12.3683 13.2126 12.013 13.3093 11.7495C13.4938 11.3017 13.7721 10.9268 14.1453 10.6241C14.5184 10.3211 14.9812 10.1697 15.5343 10.1697C16.2888 10.1697 16.8441 10.4308 17.1995 10.953C17.5549 11.4751 17.7326 12.197 17.7326 13.1185V20.0952H22.0635V12.6186C22.0632 10.6964 21.6072 9.23759 20.6944 8.24181Z" fill="#78808D"/>
<path d="M4.29182 0.770996C3.56351 0.770996 2.97338 0.983967 2.5213 1.40949C2.06926 1.83511 1.84338 2.37245 1.84338 3.02201C1.84338 3.66249 2.06276 4.19798 2.50157 4.62789C2.94023 5.05784 3.51953 5.27293 4.23912 5.27293H4.26545C5.00271 5.27293 5.59735 5.05802 6.04925 4.62789C6.50115 4.19798 6.7227 3.66267 6.71398 3.02201C6.70522 2.37249 6.48128 1.83511 6.04261 1.40949C5.60399 0.983782 5.02018 0.770996 4.29182 0.770996Z" fill="#78808D"/>
</svg>
