<svg width="13" height="14" viewBox="0 0 13 14" fill="none" xmlns="http://www.w3.org/2000/svg">
<g clip-path="url(#clip0_13412_5136)">
<path fill-rule="evenodd" clip-rule="evenodd" d="M6.50004 1.58333C5.35077 1.58333 4.24857 2.03988 3.43591 2.85254C2.62325 3.66519 2.16671 4.7674 2.16671 5.91667C2.16671 7.59478 3.25857 9.22314 4.45577 10.4868C5.04329 11.107 5.63265 11.6147 6.07574 11.9675C6.24064 12.0989 6.38468 12.2082 6.50004 12.2935C6.6154 12.2082 6.75944 12.0989 6.92434 11.9675C7.36743 11.6147 7.95679 11.107 8.54432 10.4868C9.74152 9.22314 10.8334 7.59478 10.8334 5.91667C10.8334 4.7674 10.3768 3.66519 9.56417 2.85254C8.75151 2.03988 7.64931 1.58333 6.50004 1.58333ZM6.50004 12.9583C6.19958 13.409 6.19944 13.4089 6.19929 13.4088L6.19774 13.4078L6.19413 13.4054L6.18171 13.397C6.17117 13.3898 6.15612 13.3795 6.13688 13.3662C6.09841 13.3396 6.04313 13.3007 5.97343 13.2504C5.83409 13.1498 5.63682 13.0029 5.4009 12.815C4.92993 12.44 4.30054 11.8982 3.66932 11.2319C2.42902 9.9227 1.08337 8.03022 1.08337 5.91667C1.08337 4.48008 1.65406 3.10233 2.66988 2.0865C3.6857 1.07068 5.06345 0.5 6.50004 0.5C7.93663 0.5 9.31438 1.07068 10.3302 2.0865C11.346 3.10233 11.9167 4.48008 11.9167 5.91667C11.9167 8.03022 10.5711 9.9227 9.33077 11.2319C8.69954 11.8982 8.07015 12.44 7.59918 12.815C7.36326 13.0029 7.166 13.1498 7.02665 13.2504C6.95696 13.3007 6.90167 13.3396 6.8632 13.3662C6.84396 13.3795 6.82892 13.3898 6.81837 13.397L6.80595 13.4054L6.80234 13.4078L6.8012 13.4086C6.80105 13.4087 6.8005 13.409 6.50004 12.9583ZM6.50004 12.9583L6.8005 13.409C6.61856 13.5303 6.38123 13.5301 6.19929 13.4088L6.50004 12.9583Z" fill="#2C323A"/>
<path fill-rule="evenodd" clip-rule="evenodd" d="M6.50004 4.83333C5.90173 4.83333 5.41671 5.31836 5.41671 5.91667C5.41671 6.51497 5.90173 7 6.50004 7C7.09835 7 7.58337 6.51497 7.58337 5.91667C7.58337 5.31836 7.09835 4.83333 6.50004 4.83333ZM4.33337 5.91667C4.33337 4.72005 5.30342 3.75 6.50004 3.75C7.69666 3.75 8.66671 4.72005 8.66671 5.91667C8.66671 7.11328 7.69666 8.08333 6.50004 8.08333C5.30342 8.08333 4.33337 7.11328 4.33337 5.91667Z" fill="#2C323A"/>
</g>
<defs>
<clipPath id="clip0_13412_5136">
<rect width="13" height="13" fill="white" transform="translate(0 0.5)"/>
</clipPath>
</defs>
</svg>
