<svg width="24" height="24" viewBox="0 0 24 24" fill="none" xmlns="http://www.w3.org/2000/svg">
<path fill-rule="evenodd" clip-rule="evenodd" d="M3 12C3 9.91509 3.58206 7.65623 4.96591 5.94025C6.32091 4.26006 8.5231 3 12 3C15.4786 3 17.6949 4.26268 19.0551 5.84045C20.4429 7.45036 21 9.46036 21 11C21 12.621 20.6506 13.9342 20.1381 14.8055C19.6251 15.6775 19.0299 16 18.5 16C17.9984 16 17.8004 15.899 17.6999 15.8141C17.5869 15.7187 17.4222 15.4956 17.2876 14.9034C17.0068 13.6678 17 11.5673 17 8.00002C17 7.44774 16.5523 7.00002 16 7.00002C15.4478 7.00002 15.0002 7.44753 15 7.99964C14.1643 7.37195 13.1256 7 12 7C9.23858 7 7 9.23858 7 12V13C7 15.7614 9.23858 18 12 18C13.4579 18 14.7701 17.376 15.684 16.3806C15.8604 16.7478 16.0941 17.0758 16.4095 17.3422C17.0121 17.8511 17.7516 18 18.5 18C19.9701 18 21.1249 17.0725 21.8619 15.8195C22.5994 14.5658 23 12.8791 23 11C23 9.03968 22.3071 6.54967 20.5699 4.53457C18.8051 2.48733 16.0214 1 12 1C7.9769 1 5.17909 2.48994 3.40909 4.68475C1.66794 6.84377 1 9.58491 1 12C1 16.316 2.77494 19.1183 5.09933 20.8087C7.37328 22.4625 10.095 23 12 23C12.5523 23 13 22.5523 13 22C13 21.4477 12.5523 21 12 21C10.405 21 8.12672 20.5375 6.27567 19.1913C4.47506 17.8817 3 15.684 3 12ZM9 12C9 10.3431 10.3431 9 12 9C13.6569 9 15 10.3431 15 12V13C15 14.6569 13.6569 16 12 16C10.3431 16 9 14.6569 9 13V12Z" fill="#2C323A"/>
</svg>
