<svg width="16" height="16" viewBox="0 0 16 16" fill="none" xmlns="http://www.w3.org/2000/svg">
<g clip-path="url(#clip0_3386_1730)">
<path fill-rule="evenodd" clip-rule="evenodd" d="M8.00002 2.00008C4.68631 2.00008 2.00002 4.68637 2.00002 8.00008C2.00002 11.3138 4.68631 14.0001 8.00002 14.0001C11.3137 14.0001 14 11.3138 14 8.00008C14 4.68637 11.3137 2.00008 8.00002 2.00008ZM0.666687 8.00008C0.666687 3.94999 3.94993 0.666748 8.00002 0.666748C12.0501 0.666748 15.3334 3.94999 15.3334 8.00008C15.3334 12.0502 12.0501 15.3334 8.00002 15.3334C3.94993 15.3334 0.666687 12.0502 0.666687 8.00008Z" fill="#2C323A"/>
<path fill-rule="evenodd" clip-rule="evenodd" d="M7.99998 4.66675C8.36817 4.66675 8.66665 4.96522 8.66665 5.33341V10.6667C8.66665 11.0349 8.36817 11.3334 7.99998 11.3334C7.63179 11.3334 7.33331 11.0349 7.33331 10.6667V5.33341C7.33331 4.96522 7.63179 4.66675 7.99998 4.66675Z" fill="#2C323A"/>
<path fill-rule="evenodd" clip-rule="evenodd" d="M4.66669 7.99992C4.66669 7.63173 4.96516 7.33325 5.33335 7.33325H10.6667C11.0349 7.33325 11.3334 7.63173 11.3334 7.99992C11.3334 8.36811 11.0349 8.66659 10.6667 8.66659H5.33335C4.96516 8.66659 4.66669 8.36811 4.66669 7.99992Z" fill="#2C323A"/>
</g>
<defs>
<clipPath id="clip0_3386_1730">
<rect width="16" height="16" fill="white"/>
</clipPath>
</defs>
</svg>
