<svg width="16" height="16" viewBox="0 0 16 16" fill="none" xmlns="http://www.w3.org/2000/svg">
<g clip-path="url(#clip0_1576_83732)">
<path fill-rule="evenodd" clip-rule="evenodd" d="M3.33333 1.33366C3.33333 0.965469 3.63181 0.666992 3.99999 0.666992H12C12.3682 0.666992 12.6667 0.965469 12.6667 1.33366V6.00033C12.6667 6.36852 12.3682 6.66699 12 6.66699C11.6318 6.66699 11.3333 6.36852 11.3333 6.00033V2.00033H4.66666V6.00033C4.66666 6.36852 4.36818 6.66699 3.99999 6.66699C3.63181 6.66699 3.33333 6.36852 3.33333 6.00033V1.33366Z" fill="#2C323A"/>
<path fill-rule="evenodd" clip-rule="evenodd" d="M2.66667 6.66634C2.48986 6.66634 2.32029 6.73658 2.19527 6.8616C2.07024 6.98663 2.00001 7.1562 2.00001 7.33301V10.6663C2.00001 10.8432 2.07024 11.0127 2.19527 11.1377C2.32029 11.2628 2.48986 11.333 2.66667 11.333H4C4.36819 11.333 4.66667 11.6315 4.66667 11.9997C4.66667 12.3679 4.36819 12.6663 4 12.6663H2.66667C2.13624 12.6663 1.62753 12.4556 1.25246 12.0806C0.877385 11.7055 0.666672 11.1968 0.666672 10.6663V7.33301C0.666672 6.80257 0.877385 6.29387 1.25246 5.91879C1.62753 5.54372 2.13624 5.33301 2.66667 5.33301H13.3333C13.8638 5.33301 14.3725 5.54372 14.7476 5.91879C15.1226 6.29387 15.3333 6.80257 15.3333 7.33301V10.6663C15.3333 11.1968 15.1226 11.7055 14.7476 12.0806C14.3725 12.4556 13.8638 12.6663 13.3333 12.6663H12C11.6318 12.6663 11.3333 12.3679 11.3333 11.9997C11.3333 11.6315 11.6318 11.333 12 11.333H13.3333C13.5101 11.333 13.6797 11.2628 13.8047 11.1377C13.9298 11.0127 14 10.8432 14 10.6663V7.33301C14 7.1562 13.9298 6.98663 13.8047 6.8616C13.6797 6.73658 13.5101 6.66634 13.3333 6.66634H2.66667Z" fill="#2C323A"/>
<path fill-rule="evenodd" clip-rule="evenodd" d="M3.33333 9.33366C3.33333 8.96547 3.63181 8.66699 3.99999 8.66699H12C12.3682 8.66699 12.6667 8.96547 12.6667 9.33366V14.667C12.6667 15.0352 12.3682 15.3337 12 15.3337H3.99999C3.63181 15.3337 3.33333 15.0352 3.33333 14.667V9.33366ZM4.66666 10.0003V14.0003H11.3333V10.0003H4.66666Z" fill="#2C323A"/>
</g>
<defs>
<clipPath id="clip0_1576_83732">
<rect width="16" height="16" fill="white"/>
</clipPath>
</defs>
</svg>
