<svg width="16" height="18" viewBox="0 0 16 18" fill="none" xmlns="http://www.w3.org/2000/svg">
<g clip-path="url(#clip0_13189_2298)">
<path fill-rule="evenodd" clip-rule="evenodd" d="M10.4423 3.51561C9.26049 2.98901 7.94008 2.85856 6.67804 3.1437C5.416 3.42884 4.27994 4.1143 3.43929 5.09785C2.59865 6.08141 2.09846 7.31035 2.01333 8.6014C1.9282 9.89245 2.26269 11.1764 2.9669 12.2619C3.67112 13.3473 4.70733 14.176 5.92101 14.6244C7.13468 15.0728 8.46078 15.1168 9.70154 14.75C10.9423 14.3831 12.0312 13.625 12.8059 12.5887C13.5806 11.5524 13.9996 10.2935 14.0003 8.99961V8.38666C14.0003 8.01847 14.2988 7.71999 14.667 7.71999C15.0352 7.71999 15.3337 8.01847 15.3337 8.38666V8.99999C15.3328 10.5814 14.8207 12.1205 13.8738 13.387C12.927 14.6536 11.5961 15.5802 10.0796 16.0286C8.56311 16.4769 6.94232 16.4231 5.45894 15.8751C3.97556 15.327 2.70907 14.3142 1.84836 12.9876C0.987654 11.6609 0.578839 10.0916 0.682888 8.51367C0.786938 6.93572 1.39828 5.43368 2.42573 4.23156C3.45318 3.02944 4.8417 2.19165 6.3842 1.84315C7.92669 1.49464 9.54052 1.65409 10.985 2.29771C11.3213 2.44756 11.4725 2.84168 11.3226 3.17799C11.1728 3.51431 10.7786 3.66546 10.4423 3.51561Z" fill="#16993B"/>
<path fill-rule="evenodd" clip-rule="evenodd" d="M15.1385 3.19503C15.399 3.45525 15.3992 3.87736 15.139 4.13784L8.47229 10.8112C8.34729 10.9363 8.17769 11.0066 8.00082 11.0067C7.82395 11.0067 7.65431 10.9365 7.52925 10.8114L5.52925 8.8114C5.2689 8.55106 5.2689 8.12895 5.52925 7.8686C5.7896 7.60825 6.21171 7.60825 6.47206 7.8686L8.00042 9.39696L14.1957 3.1955C14.4559 2.93502 14.878 2.93481 15.1385 3.19503Z" fill="#16993B"/>
</g>
<defs>
<clipPath id="clip0_13189_2298">
<rect width="16" height="16" fill="white" transform="translate(0 1)"/>
</clipPath>
</defs>
</svg>
