<svg width="16" height="16" viewBox="0 0 16 16" fill="none" xmlns="http://www.w3.org/2000/svg">
<path fill-rule="evenodd" clip-rule="evenodd" d="M1.33337 2.33331C1.33337 1.78103 1.78109 1.33331 2.33337 1.33331H3.00004C3.55232 1.33331 4.00004 1.78103 4.00004 2.33331V2.99998C4.00004 3.55226 3.55233 3.99998 3.00004 3.99998H2.33337C1.78109 3.99998 1.33337 3.55226 1.33337 2.99998V2.33331ZM6.66671 2.33331C6.66671 1.78103 7.11442 1.33331 7.66671 1.33331H8.33337C8.88566 1.33331 9.33337 1.78103 9.33337 2.33331V2.99998C9.33337 3.55226 8.88566 3.99998 8.33337 3.99998H7.66671C7.11442 3.99998 6.66671 3.55226 6.66671 2.99998V2.33331ZM13 1.33331C12.4478 1.33331 12 1.78103 12 2.33331V2.99998C12 3.55226 12.4478 3.99998 13 3.99998H13.6667C14.219 3.99998 14.6667 3.55226 14.6667 2.99998V2.33331C14.6667 1.78103 14.219 1.33331 13.6667 1.33331H13ZM1.33337 7.66665C1.33337 7.11436 1.78109 6.66665 2.33337 6.66665H3.00004C3.55232 6.66665 4.00004 7.11436 4.00004 7.66665V8.33331C4.00004 8.8856 3.55233 9.33331 3.00004 9.33331H2.33337C1.78109 9.33331 1.33337 8.8856 1.33337 8.33331V7.66665ZM7.66671 6.66665C7.11442 6.66665 6.66671 7.11436 6.66671 7.66665V8.33331C6.66671 8.8856 7.11442 9.33331 7.66671 9.33331H8.33337C8.88566 9.33331 9.33337 8.8856 9.33337 8.33331V7.66665C9.33337 7.11436 8.88566 6.66665 8.33337 6.66665H7.66671ZM12 7.66665C12 7.11436 12.4478 6.66665 13 6.66665H13.6667C14.219 6.66665 14.6667 7.11436 14.6667 7.66665V8.33331C14.6667 8.8856 14.219 9.33331 13.6667 9.33331H13C12.4478 9.33331 12 8.8856 12 8.33331V7.66665ZM2.33337 12C1.78109 12 1.33337 12.4477 1.33337 13V13.6666C1.33337 14.2189 1.78109 14.6666 2.33337 14.6666H3.00004C3.55233 14.6666 4.00004 14.2189 4.00004 13.6666V13C4.00004 12.4477 3.55232 12 3.00004 12H2.33337ZM6.66671 13C6.66671 12.4477 7.11442 12 7.66671 12H8.33337C8.88566 12 9.33337 12.4477 9.33337 13V13.6666C9.33337 14.2189 8.88566 14.6666 8.33337 14.6666H7.66671C7.11442 14.6666 6.66671 14.2189 6.66671 13.6666V13ZM13 12C12.4478 12 12 12.4477 12 13V13.6666C12 14.2189 12.4478 14.6666 13 14.6666H13.6667C14.219 14.6666 14.6667 14.2189 14.6667 13.6666V13C14.6667 12.4477 14.219 12 13.6667 12H13Z" fill="#2C323A"/>
</svg>
