<svg width="16" height="16" viewBox="0 0 16 16" fill="none" xmlns="http://www.w3.org/2000/svg">
<path fill-rule="evenodd" clip-rule="evenodd" d="M1.33334 3.99967C1.33334 3.63148 1.63181 3.33301 2 3.33301H14C14.3682 3.33301 14.6667 3.63148 14.6667 3.99967C14.6667 4.36786 14.3682 4.66634 14 4.66634H2C1.63181 4.66634 1.33334 4.36786 1.33334 3.99967Z" fill="#2C323A"/>
<path fill-rule="evenodd" clip-rule="evenodd" d="M6.66666 2.00033C6.48985 2.00033 6.32028 2.07056 6.19526 2.19559C6.07024 2.32061 6 2.49018 6 2.66699V3.33366H10V2.66699C10 2.49018 9.92976 2.32061 9.80473 2.19559C9.67971 2.07056 9.51014 2.00033 9.33333 2.00033H6.66666ZM11.3333 3.33366V2.66699C11.3333 2.13656 11.1226 1.62785 10.7475 1.25278C10.3725 0.877706 9.86376 0.666992 9.33333 0.666992H6.66666C6.13623 0.666992 5.62752 0.877706 5.25245 1.25278C4.87738 1.62785 4.66666 2.13656 4.66666 2.66699V3.33366H3.33333C2.96514 3.33366 2.66666 3.63214 2.66666 4.00033V13.3337C2.66666 13.8641 2.87738 14.3728 3.25245 14.7479C3.62752 15.1229 4.13623 15.3337 4.66666 15.3337H11.3333C11.8638 15.3337 12.3725 15.1229 12.7475 14.7479C13.1226 14.3728 13.3333 13.8641 13.3333 13.3337V4.00033C13.3333 3.63214 13.0349 3.33366 12.6667 3.33366H11.3333ZM4 4.66699V13.3337C4 13.5105 4.07024 13.68 4.19526 13.8051C4.32028 13.9301 4.48985 14.0003 4.66666 14.0003H11.3333C11.5101 14.0003 11.6797 13.9301 11.8047 13.8051C11.9298 13.68 12 13.5105 12 13.3337V4.66699H4Z" fill="#2C323A"/>
</svg>
