<svg width="24" height="24" viewBox="0 0 24 24" fill="none" xmlns="http://www.w3.org/2000/svg">
<path d="M23.0039 7.28846C22.2555 7.60409 21.5039 7.84237 20.671 7.92282C21.5039 7.44627 22.1709 6.65409 22.5028 5.78146C21.6698 6.258 20.8369 6.57364 19.9226 6.73455C19.0896 5.94237 18.0061 5.46582 16.8413 5.46582C14.5897 5.46582 12.7579 7.208 12.7579 9.34627C12.7579 9.665 12.7579 9.98064 12.8425 10.2189C9.42605 10.0611 6.42936 8.55409 4.42831 6.17755C4.01184 6.73455 3.8459 7.44627 3.8459 8.158C3.8459 9.50719 4.59425 10.6955 5.67775 11.4072C5.01073 11.3267 4.34697 11.1689 3.8459 10.9306C3.8459 10.9306 3.8459 10.9306 3.8459 11.0111C3.8459 12.9111 5.26127 14.4955 7.09312 14.8142C6.76124 14.8915 6.42936 14.972 6.01288 14.972C5.76234 14.972 5.51181 14.972 5.26127 14.8915C5.76234 16.4759 7.26232 17.5868 9.09417 17.5868C7.67879 18.6173 5.92828 19.2485 4.01184 19.2485C3.67995 19.2485 3.34482 19.2485 3.01294 19.1712C4.84479 20.279 7.01178 20.9134 9.26011 20.9134C16.8413 20.9134 20.9215 14.972 20.9215 9.82282C20.9215 9.665 20.9215 9.50719 20.9215 9.34627C21.7544 8.79237 22.4215 8.08064 23.0039 7.28846Z" fill="#78808D"/>
</svg>
