<svg width="80" height="80" viewBox="0 0 80 80" fill="none" xmlns="http://www.w3.org/2000/svg">
<g clip-path="url(#clip0_1535_10999)">
<path fill-rule="evenodd" clip-rule="evenodd" d="M37.6429 37.6429C38.9447 36.3412 41.0552 36.3412 42.357 37.6429L55.6903 50.9763C56.9921 52.278 56.9921 54.3886 55.6903 55.6903C54.3886 56.992 52.278 56.992 50.9763 55.6903L40 44.714L29.0236 55.6903C27.7219 56.992 25.6113 56.992 24.3096 55.6903C23.0078 54.3886 23.0078 52.278 24.3096 50.9763L37.6429 37.6429Z" fill="#C1C7D2"/>
<path fill-rule="evenodd" clip-rule="evenodd" d="M40 36.6666C41.8409 36.6666 43.3333 38.159 43.3333 39.9999V69.9999C43.3333 71.8409 41.8409 73.3333 40 73.3333C38.159 73.3333 36.6666 71.8409 36.6666 69.9999V39.9999C36.6666 38.159 38.159 36.6666 40 36.6666Z" fill="#C1C7D2"/>
<path fill-rule="evenodd" clip-rule="evenodd" d="M28.8776 6.69515C33.4092 6.52818 37.9197 7.39071 42.07 9.21787C46.2203 11.045 49.9024 13.7893 52.8395 17.2443C55.211 20.0341 57.0469 23.2286 58.2636 26.6666H60C64.4434 26.6695 68.7616 28.1521 72.2688 30.8804C75.7761 33.6087 78.2749 37.4272 79.371 41.7334C80.467 46.0395 80.0978 50.5881 78.3216 54.6611C76.5455 58.7341 73.4635 62.0997 69.5621 64.2266C67.9458 65.1078 65.9211 64.5118 65.0399 62.8955C64.1588 61.2791 64.7547 59.2545 66.3711 58.3733C68.972 56.9553 71.0266 54.7116 72.2107 51.9963C73.3949 49.2809 73.641 46.2486 72.9103 43.3778C72.1796 40.507 70.5137 37.9613 68.1755 36.1425C65.8374 34.3236 62.9601 33.3352 59.9977 33.3333H55.8C54.2804 33.3333 52.9531 32.3055 52.5727 30.8343C51.6899 27.4196 50.0444 24.2494 47.7601 21.5622C45.4757 18.875 42.6119 16.7405 39.3839 15.3194C36.1558 13.8983 32.6477 13.2274 29.1231 13.3573C25.5985 13.4872 22.1492 14.4143 19.0345 16.0692C15.9198 17.724 13.2208 20.0634 11.1404 22.9114C9.05995 25.7595 7.65224 29.0421 7.02309 32.5125C6.39393 35.983 6.5597 39.5508 7.50793 42.948C8.45617 46.3451 10.1622 49.4831 12.4977 52.126C13.7168 53.5055 13.5867 55.612 12.2073 56.8311C10.8278 58.0501 8.72124 57.9201 7.50217 56.5406C4.49933 53.1426 2.30588 49.1081 1.08672 44.7403C-0.132435 40.3726 -0.345568 35.7853 0.463345 31.3233C1.27226 26.8614 3.08217 22.6408 5.757 18.979C8.43184 15.3172 11.902 12.3095 15.9066 10.1818C19.9112 8.05421 24.346 6.86211 28.8776 6.69515Z" fill="#C1C7D2"/>
<path fill-rule="evenodd" clip-rule="evenodd" d="M37.6429 37.6429C38.9447 36.3412 41.0552 36.3412 42.357 37.6429L55.6903 50.9763C56.9921 52.278 56.9921 54.3886 55.6903 55.6903C54.3886 56.992 52.278 56.992 50.9763 55.6903L40 44.714L29.0236 55.6903C27.7219 56.992 25.6113 56.992 24.3096 55.6903C23.0078 54.3886 23.0078 52.278 24.3096 50.9763L37.6429 37.6429Z" fill="#C1C7D2"/>
</g>
<defs>
<clipPath id="clip0_1535_10999">
<rect width="80" height="80" fill="white"/>
</clipPath>
</defs>
</svg>
