<svg width="40" height="34" viewBox="0 0 40 34" fill="none" xmlns="http://www.w3.org/2000/svg">
<path fill-rule="evenodd" clip-rule="evenodd" d="M18.8216 15.8215C19.4725 15.1706 20.5277 15.1706 21.1786 15.8215L27.8453 22.4882C28.4962 23.139 28.4962 24.1943 27.8453 24.8452C27.1944 25.4961 26.1391 25.4961 25.4883 24.8452L20.0001 19.357L14.5119 24.8452C13.8611 25.4961 12.8058 25.4961 12.1549 24.8452C11.504 24.1943 11.504 23.139 12.1549 22.4882L18.8216 15.8215Z" fill="#C1C7D2"/>
<path fill-rule="evenodd" clip-rule="evenodd" d="M20.0001 15.3333C20.9206 15.3333 21.6668 16.0795 21.6668 17V32C21.6668 32.9205 20.9206 33.6667 20.0001 33.6667C19.0796 33.6667 18.3334 32.9205 18.3334 32V17C18.3334 16.0795 19.0796 15.3333 20.0001 15.3333Z" fill="#C1C7D2"/>
<path fill-rule="evenodd" clip-rule="evenodd" d="M14.4389 0.347605C16.7047 0.264123 18.96 0.695384 21.0351 1.60896C23.1103 2.52254 24.9513 3.89467 26.4199 5.62219C27.6056 7.01706 28.5236 8.61433 29.1319 10.3333H30.0001C32.2218 10.3348 34.3809 11.0761 36.1345 12.4402C37.8882 13.8044 39.1376 15.7136 39.6856 17.8667C40.2336 20.0198 40.049 22.2941 39.1609 24.3306C38.2729 26.3671 36.7319 28.0499 34.7812 29.1133C33.973 29.5539 32.9607 29.2559 32.5201 28.4478C32.0795 27.6396 32.3775 26.6273 33.1857 26.1867C34.4861 25.4777 35.5134 24.3558 36.1055 22.9982C36.6975 21.6405 36.8206 20.1243 36.4553 18.6889C36.0899 17.2535 35.257 15.9807 34.0879 15.0713C32.9188 14.1618 31.4801 13.6676 29.999 13.6667H27.9001C27.1403 13.6667 26.4767 13.1528 26.2865 12.4172C25.8451 10.7098 25.0223 9.12475 23.8802 7.78113C22.738 6.43751 21.3061 5.3703 19.692 4.65973C18.078 3.94917 16.324 3.61375 14.5617 3.67868C12.7994 3.74361 11.0747 4.2072 9.51737 5.03461C7.96003 5.86202 6.61052 7.03171 5.57031 8.45574C4.5301 9.87977 3.82624 11.5211 3.51167 13.2563C3.19709 14.9915 3.27997 16.7755 3.75409 18.474C4.2282 20.1726 5.08121 21.7416 6.24899 23.063C6.85852 23.7528 6.7935 24.806 6.10375 25.4156C5.41401 26.0251 4.36074 25.9601 3.75121 25.2703C2.24979 23.5713 1.15306 21.5541 0.543482 19.3702C-0.0660955 17.1863 -0.172662 14.8927 0.231795 12.6617C0.636251 10.4307 1.54121 8.32044 2.87862 6.48954C4.21604 4.65864 5.95112 3.15476 7.95341 2.09095C9.95571 1.02714 12.1731 0.431086 14.4389 0.347605Z" fill="#C1C7D2"/>
<path fill-rule="evenodd" clip-rule="evenodd" d="M18.8216 15.8215C19.4725 15.1706 20.5277 15.1706 21.1786 15.8215L27.8453 22.4882C28.4962 23.139 28.4962 24.1943 27.8453 24.8452C27.1944 25.4961 26.1391 25.4961 25.4883 24.8452L20.0001 19.357L14.5119 24.8452C13.8611 25.4961 12.8058 25.4961 12.1549 24.8452C11.504 24.1943 11.504 23.139 12.1549 22.4882L18.8216 15.8215Z" fill="#C1C7D2"/>
</svg>
