<svg width="16" height="16" viewBox="0 0 16 16" fill="none" xmlns="http://www.w3.org/2000/svg">
<path fill-rule="evenodd" clip-rule="evenodd" d="M1.56713 5.33542C0.632358 5.85592 0 6.85407 0 7.99991C0 9.14582 0.632439 10.144 1.56731 10.6645C1.27431 11.6936 1.53295 12.8466 2.34322 13.6569C3.15346 14.4671 4.30641 14.7257 5.33546 14.4328C5.85592 15.3677 6.85415 16.0002 8.00009 16.0002C9.14611 16.0002 10.1444 15.3676 10.6648 14.4326C11.6938 14.7255 12.8467 14.4668 13.6569 13.6566C14.4671 12.8464 14.7257 11.6935 14.4328 10.6644C15.3676 10.1439 16 9.14578 16 7.99991C16 6.85402 15.3676 5.85584 14.4328 5.33535C14.7256 4.30635 14.467 3.15348 13.6568 2.34329C12.8466 1.53309 11.6937 1.27443 10.6647 1.56731C10.1442 0.632439 9.14601 0 8.00009 0C6.85412 0 5.85588 0.632504 5.33542 1.56745C4.30636 1.27448 3.15338 1.53313 2.34313 2.34338C1.53294 3.15357 1.27428 4.30642 1.56713 5.33542ZM10.8738 6.80962C11.1341 6.54927 11.1341 6.12716 10.8738 5.86681C10.6134 5.60646 10.1913 5.60646 9.93099 5.86681L6.93099 9.06207L6.06906 8.20014C5.80871 7.9398 5.3866 7.9398 5.12625 8.20014C4.8659 8.46049 4.8659 8.88261 5.12625 9.14295L6.45959 10.4763C6.71993 10.7366 7.14205 10.7366 7.40239 10.4763L10.8738 6.80962Z" fill="url(#paint0_linear_13855_366)"/>
<defs>
<linearGradient id="paint0_linear_13855_366" x1="0" y1="16.0002" x2="16.0002" y2="0.000162125" gradientUnits="userSpaceOnUse">
<stop stop-color="#16993B"/>
<stop offset="0.828125" stop-color="#63C56C"/>
</linearGradient>
</defs>
</svg>
