<svg width="28" height="16" viewBox="0 0 28 16" fill="none" xmlns="http://www.w3.org/2000/svg">
<rect opacity="0.8" width="28" height="16" rx="3" fill="black"/>
<path d="M5.92188 5.36328H8.21484C8.79557 5.36328 9.26562 5.54036 9.625 5.89453C9.98698 6.2487 10.168 6.71484 10.168 7.29297C10.168 7.86849 9.98177 8.33464 9.60938 8.69141C9.23698 9.04557 8.7526 9.22266 8.15625 9.22266H7.10156V11H5.92188V5.36328ZM7.10156 6.29688V8.30078H7.89844C8.23698 8.30078 8.5 8.21354 8.6875 8.03906C8.875 7.86458 8.96875 7.61719 8.96875 7.29688C8.96875 6.97656 8.875 6.73047 8.6875 6.55859C8.5026 6.38411 8.24089 6.29688 7.90234 6.29688H7.10156ZM12.5469 6.28516V8.08203H13.5625C13.8594 8.08203 14.0898 8.0026 14.2539 7.84375C14.4206 7.6849 14.5039 7.46484 14.5039 7.18359C14.5039 6.91016 14.418 6.69271 14.2461 6.53125C14.0742 6.36719 13.8424 6.28516 13.5508 6.28516H12.5469ZM12.5469 8.9375V11H11.3672V5.36328H13.6758C14.319 5.36328 14.819 5.52344 15.1758 5.84375C15.5352 6.16146 15.7148 6.60026 15.7148 7.16016C15.7148 7.52734 15.6237 7.85547 15.4414 8.14453C15.2617 8.43099 15.0117 8.63672 14.6914 8.76172L15.8789 11H14.543L13.4922 8.9375H12.5469ZM17.5469 6.05078C18.0365 5.52734 18.6992 5.26562 19.5352 5.26562C20.3711 5.26562 21.0326 5.52734 21.5195 6.05078C22.0091 6.57422 22.2539 7.28516 22.2539 8.18359C22.2539 9.07943 22.0091 9.78906 21.5195 10.3125C21.0299 10.8359 20.3685 11.0977 19.5352 11.0977C18.6992 11.0977 18.0365 10.8359 17.5469 10.3125C17.0599 9.78906 16.8164 9.07943 16.8164 8.18359C16.8164 7.28516 17.0599 6.57422 17.5469 6.05078ZM20.6367 6.77344C20.3633 6.42448 19.9961 6.25 19.5352 6.25C19.0742 6.25 18.7057 6.42448 18.4297 6.77344C18.1562 7.1224 18.0195 7.59245 18.0195 8.18359C18.0195 8.77214 18.1562 9.24089 18.4297 9.58984C18.7031 9.9362 19.0716 10.1094 19.5352 10.1094C19.9961 10.1094 20.3633 9.9362 20.6367 9.58984C20.9102 9.24089 21.0469 8.77214 21.0469 8.18359C21.0469 7.59245 20.9102 7.1224 20.6367 6.77344Z" fill="white"/>
</svg>
